<svg xmlns="http://www.w3.org/2000/svg" xmlns:xlink="http://www.w3.org/1999/xlink" version="1.1" id="Your_Icon" x="0px" y="0px" width="100px" height="100px" viewBox="0 0 100 100" enable-background="new 0 0 100 100" xml:space="preserve">
<g>
	<path d="M52.519,69.489l-9.329-3.389c-0.517-0.241-1.134-0.021-1.379,0.493c-0.246,0.517-0.026,1.134,0.49,1.38l10.119,3.759   l10.076-3.723c0.538-0.199,0.812-0.794,0.61-1.332c-0.196-0.534-0.794-0.812-1.327-0.611L52.519,69.489z"/>
	<path d="M52.339,27.767c-8.761,0-13.786,5.522-13.786,15.155c0,9.614,11.025,20.606,13.786,20.606   c2.76,0,13.786-10.992,13.786-20.606C66.125,33.289,61.1,27.767,52.339,27.767z M52.339,59.061   c-2.647-2.037-9.645-9.401-9.645-16.139c0-7.31,3.244-11.014,9.645-11.014s9.645,3.704,9.645,11.014   C61.983,49.659,54.986,57.023,52.339,59.061z"/>
	<path d="M51.63,11.027C29.778,11.027,12,28.35,12,49.642c0,21.293,17.778,38.614,39.63,38.614s39.626-17.321,39.626-38.614   C91.256,28.35,73.481,11.027,51.63,11.027z M77.06,73.588c-1.055-7.232-5.333-13.857-14.841-13.857   c-1.153,0-2.088,0.936-2.088,2.088c0,1.151,0.935,2.084,2.088,2.084c9.576,0,10.872,8.814,10.942,13.039   c-5.978,4.462-13.432,7.143-21.531,7.143c-8.104,0-15.556-2.681-21.536-7.143c0.073-4.225,1.367-13.039,10.948-13.039   c1.15,0,2.083-0.933,2.083-2.084c0-1.152-0.933-2.088-2.083-2.088c-9.513,0-13.791,6.625-14.846,13.857   c-6.193-6.204-10.025-14.643-10.025-23.946c0-18.991,15.904-34.443,35.458-34.443c19.551,0,35.457,15.453,35.457,34.443   C87.087,58.945,83.255,67.384,77.06,73.588z"/>
</g>
</svg>